<svg width="24" height="25" viewBox="0 0 24 25" fill="none" xmlns="http://www.w3.org/2000/svg">
<path d="M0 11.4987C0 12.6033 0.895431 13.4987 2 13.4987H8.66667C9.77123 13.4987 10.6667 12.6033 10.6667 11.4987V2.21777C10.6667 1.1132 9.77124 0.217773 8.66667 0.217773H2C0.895432 0.217773 0 1.1132 0 2.21777V11.4987ZM0 22.1234C0 23.228 0.895431 24.1234 2 24.1234H8.66667C9.77123 24.1234 10.6667 23.228 10.6667 22.1234V18.1549C10.6667 17.0503 9.77124 16.1549 8.66667 16.1549H2C0.895432 16.1549 0 17.0503 0 18.1549V22.1234ZM13.3333 22.1234C13.3333 23.228 14.2288 24.1234 15.3333 24.1234H22C23.1046 24.1234 24 23.228 24 22.1234V12.8425C24 11.7379 23.1046 10.8425 22 10.8425H15.3333C14.2288 10.8425 13.3333 11.7379 13.3333 12.8425V22.1234ZM15.3333 0.217773C14.2288 0.217773 13.3333 1.1132 13.3333 2.21777V6.18632C13.3333 7.29089 14.2288 8.18632 15.3333 8.18632H22C23.1046 8.18632 24 7.29089 24 6.18632V2.21777C24 1.1132 23.1046 0.217773 22 0.217773H15.3333Z" fill="#01B0C7"/>
</svg>
