<svg width="24" height="24" viewBox="0 0 24 24" fill="none" xmlns="http://www.w3.org/2000/svg">
<g clip-path="url(#clip0_839_3216)">
<path d="M23.017 8.78498C22.422 8.24298 21.653 7.96898 20.849 8.00298C20.045 8.04098 19.305 8.38998 18.763 8.98398L15.547 12.518C14.996 11.609 13.997 10.999 12.858 10.999H4C1.794 10.999 0 12.793 0 14.999V19.999C0 22.205 1.794 23.999 4 23.999H8.965C11.814 23.999 14.535 22.779 16.431 20.651L23.236 13.013C24.329 11.786 24.23 9.88998 23.017 8.78498ZM21.743 11.684L14.938 19.322C13.421 21.023 11.244 22 8.965 22H4C2.897 22 2 21.103 2 20V15C2 13.897 2.897 13 4 13H12.858C13.488 13 14 13.513 14 14.143C14 14.707 13.579 15.194 13.019 15.273L7.858 16.01C7.312 16.088 6.932 16.595 7.01 17.142C7.089 17.69 7.595 18.071 8.141 17.991L13.301 17.254C14.476 17.086 15.431 16.266 15.816 15.195L20.242 10.331C20.424 10.132 20.672 10.015 20.942 10.002C21.216 9.98598 21.47 10.083 21.67 10.265C22.077 10.636 22.11 11.274 21.743 11.686V11.684ZM4.294 4.49398C4.027 4.26798 3.93 3.89998 4.051 3.57198C4.171 3.24398 4.484 3.02598 4.833 3.02598H7.334L8.219 0.542977C8.34 0.216977 8.652 0.000976562 9 0.000976562C9.348 0.000976562 9.66 0.216977 9.781 0.542977L10.666 3.02598H13.167C13.517 3.02598 13.83 3.24498 13.95 3.57398C14.07 3.90298 13.972 4.27198 13.704 4.49698L11.733 6.10298L12.548 8.58698C12.66 8.92298 12.546 9.29298 12.266 9.50898C11.985 9.72498 11.599 9.73998 11.302 9.54698L9.007 8.05198L6.75 9.56198C6.61 9.65598 6.448 9.70298 6.287 9.70298C6.111 9.70298 5.935 9.64698 5.787 9.53698C5.504 9.32498 5.386 8.95698 5.492 8.61998L6.276 6.10698L4.295 4.49498L4.294 4.49398Z" fill="white"/>
</g>
<defs>
<clipPath id="clip0_839_3216">
<rect width="24" height="24" fill="white"/>
</clipPath>
</defs>
</svg>
