<svg width="24" height="24" viewBox="0 0 24 24" fill="none" xmlns="http://www.w3.org/2000/svg">
<g clip-path="url(#clip0_839_3220)">
<path d="M24.0002 8.49995C24.0002 3.81295 20.1872 -5.09315e-05 15.5002 -5.09315e-05C10.8132 -5.09315e-05 7.00018 3.81295 7.00018 8.49995C7.00018 13.1869 10.8132 16.9999 15.5002 16.9999C20.1872 16.9999 24.0002 13.1869 24.0002 8.49995ZM15.5002 14.9999C11.9162 14.9999 9.00018 12.084 9.00018 8.49995C9.00018 4.91595 11.9162 1.99995 15.5002 1.99995C19.0842 1.99995 22.0002 4.91595 22.0002 8.49995C22.0002 12.084 19.0842 14.9999 15.5002 14.9999ZM14.7112 19.1909C15.1582 19.5149 15.2582 20.1399 14.9342 20.5869C13.3852 22.7239 10.8862 23.9999 8.25018 23.9999C3.70118 23.9999 0.000177162 20.299 0.000177162 15.7499C0.000177162 13.1139 1.27618 10.6159 3.41318 9.06595C3.86118 8.74195 4.48618 8.84095 4.80918 9.28895C5.13318 9.73595 5.03418 10.3609 4.58618 10.6849C2.96618 11.8589 1.99918 13.7519 1.99918 15.7489C1.99918 19.195 4.80318 21.9989 8.24918 21.9989C10.2472 21.9989 12.1402 21.0319 13.3142 19.4129C13.6372 18.9649 14.2632 18.8649 14.7102 19.1899L14.7112 19.1909ZM18.8052 6.74995C18.8052 5.35895 17.6852 4.22895 16.2992 4.20495V3.73095C16.2992 3.28895 15.9412 2.93095 15.4992 2.93095C15.0572 2.93095 14.6992 3.28895 14.6992 3.73095V4.19995H14.0472C13.3302 4.19995 12.7472 4.78295 12.7472 5.49995V11.4999C12.7472 12.2169 13.3302 12.7999 14.0472 12.7999H14.6992V13.2499C14.6992 13.6919 15.0572 14.0499 15.4992 14.0499C15.9412 14.0499 16.2992 13.6919 16.2992 13.2499V12.7999H16.4422C17.8482 12.7999 18.9922 11.6559 18.9922 10.2499C18.9922 9.52295 18.6872 8.86695 18.1972 8.40095C18.5762 7.95595 18.8052 7.37895 18.8052 6.74995ZM14.3472 5.79995H16.2552C16.7792 5.79995 17.2052 6.22595 17.2052 6.74995C17.2052 7.27395 16.7792 7.69995 16.2552 7.69995H14.3472V5.79995ZM16.4412 11.1999H14.3472V9.29995H16.4412C16.9652 9.29995 17.3912 9.72595 17.3912 10.2499C17.3912 10.7739 16.9652 11.1999 16.4412 11.1999ZM23.4502 21.3249L21.2262 23.6859C21.0302 23.8939 20.7642 23.9999 20.4982 23.9999C20.2522 23.9999 20.0052 23.9099 19.8122 23.7279C19.4102 23.3499 19.3922 22.7169 19.7702 22.3139L21.0082 20.9999H17.9972C17.4452 20.9999 16.9972 20.5519 16.9972 19.9999C16.9972 19.4479 17.4452 18.9999 17.9972 18.9999H21.0082L19.7692 17.6859C19.3912 17.2839 19.4092 16.6509 19.8112 16.2719C20.2122 15.8939 20.8452 15.9119 21.2252 16.3139L23.4692 18.6959C24.1782 19.4049 24.1782 20.5939 23.4482 21.3249H23.4502ZM0.528177 5.30395C-0.180823 4.59395 -0.180823 3.40495 0.549177 2.67495L2.77218 0.313949C3.15118 -0.0890509 3.78418 -0.107051 4.18618 0.271949C4.58818 0.650949 4.60718 1.28395 4.22818 1.68595L2.99018 2.99995H6.00018C6.55218 2.99995 7.00018 3.44795 7.00018 3.99995C7.00018 4.55195 6.55218 4.99995 6.00018 4.99995H2.98918L4.22818 6.31395C4.60618 6.71595 4.58818 7.34895 4.18618 7.72795C3.99318 7.90995 3.74718 7.99995 3.50018 7.99995C3.23418 7.99995 2.96918 7.89495 2.77218 7.68595L0.528177 5.30395Z" fill="white"/>
</g>
<defs>
<clipPath id="clip0_839_3220">
<rect width="24" height="24" fill="white"/>
</clipPath>
</defs>
</svg>
