<svg width="24" height="24" viewBox="0 0 24 24" fill="none" xmlns="http://www.w3.org/2000/svg">
<path d="M22.2075 5.02893C21.3112 3.53517 19.7178 2.53931 17.9253 2.53931H5.97511C4.18256 2.53931 2.58923 3.53517 1.69294 5.02893C0.597516 7.02065 0 9.21154 0 11.502C0 16.9792 2.19089 21.4605 4.97925 21.4605C6.47302 21.4605 7.66805 20.0663 8.5643 17.1783C8.66386 16.78 9.0622 16.4812 9.56016 16.4812H14.4398C14.8382 16.4812 15.2365 16.78 15.4357 17.1783C16.332 20.0663 17.527 21.4605 19.0208 21.4605C21.8091 21.4605 24 16.9792 24 11.502C23.9004 9.21154 23.3029 7.02065 22.2075 5.02893ZM18.9211 19.4688C18.6224 19.4688 17.9253 18.6721 17.2282 16.5808C16.8299 15.2862 15.6348 14.4895 14.3402 14.4895H9.56016C8.26556 14.4895 7.07053 15.3858 6.67219 16.5808C5.97511 18.6721 5.27798 19.4688 4.97925 19.4688C3.98339 19.4688 1.99172 16.3816 1.99172 11.502C1.99172 9.60989 2.48962 7.71778 3.38592 6.02484C3.98344 5.12859 4.9793 4.53107 5.97516 4.53107H17.9254C18.9212 4.53107 19.9171 5.12859 20.5146 6.02484C21.4109 7.71778 21.9088 9.60989 21.9088 11.502C21.9087 16.3816 19.917 19.4688 18.9211 19.4688Z" fill="white"/>
<path d="M8.99992 8.99997H7.99994V7.99998C7.99994 7.39998 7.59995 7 6.99995 7C6.39995 7 5.99997 7.39998 5.99997 7.99998V8.99997H4.99998C4.39998 8.99997 4 9.39995 4 9.99995C4 10.6 4.39998 10.9999 4.99998 10.9999H5.99992V12C5.99992 12.6 6.39991 13 6.99991 13C7.59991 13 7.99989 12.6 7.99989 12V11H8.99992C9.59992 11 9.99991 10.6 9.99991 10C9.99991 9.39995 9.59992 8.99997 8.99992 8.99997Z" fill="white"/>
<path d="M18.5 10C19.3284 10 20 9.32843 20 8.5C20 7.67157 19.3284 7 18.5 7C17.6716 7 17 7.67157 17 8.5C17 9.32843 17.6716 10 18.5 10Z" fill="white"/>
<path d="M15.5 13C16.3284 13 17 12.3284 17 11.5C17 10.6716 16.3284 10 15.5 10C14.6716 10 14 10.6716 14 11.5C14 12.3284 14.6716 13 15.5 13Z" fill="white"/>
</svg>
