<svg width="24" height="24" viewBox="0 0 24 24" fill="none" xmlns="http://www.w3.org/2000/svg">
<g clip-path="url(#clip0_839_3214)">
<path d="M17.762 8.99995C16.092 8.99995 14.621 9.33495 13.524 9.89295V4.49995C13.524 2.20195 10.123 0.999948 6.762 0.999948C3.401 0.999948 0 2.20195 0 4.49995V20.4999C0 22.7979 3.401 23.9999 6.762 23.9999C8.998 23.9999 11.246 23.4649 12.504 22.4319C13.593 23.3889 15.499 23.9999 17.762 23.9999C21.319 23.9999 24 22.4949 24 20.4999V12.4999C24 10.5049 21.318 8.99995 17.762 8.99995ZM22 16.4999C22 17.0149 20.35 17.9999 17.762 17.9999C15.174 17.9999 13.524 17.0149 13.524 16.4999V15.1069C14.621 15.6649 16.093 15.9999 17.762 15.9999C19.431 15.9999 20.903 15.6649 22 15.1069V16.4999ZM11.523 8.49995C11.523 8.88595 9.885 9.99995 6.761 9.99995C3.637 9.99995 1.999 8.88595 1.999 8.49995V7.04995C3.282 7.67695 5.025 7.99995 6.761 7.99995C8.497 7.99995 10.24 7.67695 11.523 7.04995V8.49995ZM6.761 11.9999C8.497 11.9999 10.24 11.6769 11.523 11.0499V12.4999C11.523 12.8859 9.885 13.9999 6.761 13.9999C3.637 13.9999 1.999 12.8859 1.999 12.4999V11.0499C3.282 11.6769 5.025 11.9999 6.761 11.9999ZM1.999 15.0499C3.282 15.6769 5.025 15.9999 6.761 15.9999C8.497 15.9999 10.24 15.6769 11.523 15.0499V16.4999C11.523 16.8859 9.885 17.9999 6.761 17.9999C3.637 17.9999 1.999 16.8859 1.999 16.4999V15.0499ZM17.761 10.9999C20.349 10.9999 21.999 11.9849 21.999 12.4999C21.999 13.0149 20.349 13.9999 17.761 13.9999C15.173 13.9999 13.523 13.0149 13.523 12.4999C13.523 11.9849 15.173 10.9999 17.761 10.9999ZM6.762 2.99995C9.886 2.99995 11.524 4.11395 11.524 4.49995C11.524 4.88595 9.886 5.99995 6.762 5.99995C3.638 5.99995 2 4.88595 2 4.49995C2 4.11395 3.638 2.99995 6.762 2.99995ZM6.762 21.9999C3.638 21.9999 2 20.8859 2 20.4999V19.0499C3.283 19.6769 5.026 19.9999 6.762 19.9999C8.498 19.9999 10.241 19.6769 11.524 19.0499V20.4999C11.524 20.8859 9.886 21.9999 6.762 21.9999ZM17.762 21.9999C15.174 21.9999 13.524 21.0149 13.524 20.4999V19.1069C14.621 19.6649 16.093 19.9999 17.762 19.9999C19.431 19.9999 20.903 19.6649 22 19.1069V20.4999C22 21.0149 20.35 21.9999 17.762 21.9999ZM15.588 3.95295C15.2 3.55995 15.204 2.92695 15.598 2.53895L17.582 0.579948C18.353 -0.191052 19.615 -0.191052 20.394 0.583948L22.397 2.53495C22.793 2.91995 22.801 3.55295 22.417 3.94895C22.03 4.34395 21.398 4.35295 21.003 3.96795L20 2.99195V6.99995C20 7.55195 19.553 7.99995 19 7.99995C18.447 7.99995 18 7.55195 18 6.99995V2.97995C17.609 3.29595 16.881 4.32495 16.3 4.24995C16.042 4.24995 15.784 4.15095 15.588 3.95295Z" fill="white"/>
</g>
<defs>
<clipPath id="clip0_839_3214">
<rect width="24" height="24" fill="white"/>
</clipPath>
</defs>
</svg>
