<svg width="24" height="24" viewBox="0 0 24 24" fill="none" xmlns="http://www.w3.org/2000/svg">
<g clip-path="url(#clip0_839_3218)">
<path d="M11 10V11C11 11.552 10.552 12 10 12H5C4.448 12 4 11.552 4 11V10C4 9.448 4.448 9 5 9H10C10.552 9 11 9.448 11 10ZM24 6.5V17C24 17.357 23.81 17.688 23.5 17.866C23.191 18.044 22.81 18.044 22.501 17.866L20.331 16.616L18.564 17.825C18.392 17.943 18.195 18 18.001 18C17.682 18 17.368 17.848 17.175 17.564C16.863 17.109 16.98 16.487 17.436 16.174L19.721 14.61C20.036 14.393 20.452 14.376 20.784 14.569L22 15.269V6.5C22 4.019 19.981 2 17.5 2C15.251 2 13.403 3.624 13.069 5.815C14.233 6.629 15 7.975 15 9.5V19.5C15 21.981 12.981 24 10.5 24H4.5C2.019 24 0 21.981 0 19.5V9.5C0 7.943 0.795 6.57 2 5.762V5C2 2.243 4.243 0 7 0H17.5C21.084 0 24 2.916 24 6.5ZM13 9.5C13 8.121 11.879 7 10.5 7H4.5C3.121 7 2 8.121 2 9.5V19.5C2 20.879 3.121 22 4.5 22H10.5C11.879 22 13 20.879 13 19.5V9.5ZM11.164 5.067C11.427 3.884 12.001 2.834 12.799 2H7C5.346 2 4 3.346 4 5V5.051C4.166 5.032 4.329 5 4.5 5H10.5C10.727 5 10.946 5.034 11.164 5.067ZM10 14H9C8.447 14 8 14.447 8 15C8 15.553 8.447 16 9 16H10C10.553 16 11 15.553 11 15C11 14.447 10.553 14 10 14ZM10 18H9C8.447 18 8 18.447 8 19C8 19.553 8.447 20 9 20H10C10.553 20 11 19.553 11 19C11 18.447 10.553 18 10 18ZM6 14H5C4.447 14 4 14.447 4 15C4 15.553 4.447 16 5 16H6C6.553 16 7 15.553 7 15C7 14.447 6.553 14 6 14ZM6 18H5C4.447 18 4 18.447 4 19C4 19.553 4.447 20 5 20H6C6.553 20 7 19.553 7 19C7 18.447 6.553 18 6 18Z" fill="white"/>
</g>
<defs>
<clipPath id="clip0_839_3218">
<rect width="24" height="24" fill="white"/>
</clipPath>
</defs>
</svg>
