<svg width="24" height="24" viewBox="0 0 24 24" fill="none" xmlns="http://www.w3.org/2000/svg">
<g clip-path="url(#clip0_839_3236)">
<path d="M4 22C4 23.105 3.105 24 2 24C0.895 24 0 23.105 0 22C0 20.895 0.895 20 2 20C3.105 20 4 20.895 4 22ZM10.5 16C10.5 17.105 11.395 18 12.5 18C13.605 18 14.5 17.105 14.5 16C14.5 14.895 13.605 14 12.5 14C11.395 14 10.5 14.895 10.5 16ZM6.5 17H8C8.552 17 9 16.553 9 16C9 15.447 8.552 15 8 15H6.5C5.122 15 4 13.879 4 12.5C4 11.121 5.122 10 6.5 10H15C15.553 10 16 9.552 16 9C16 8.448 15.553 8 15 8H6.5C4.019 8 2 10.019 2 12.5C2 14.981 4.019 17 6.5 17ZM20 15H17C16.447 15 16 15.447 16 16C16 16.553 16.447 17 17 17H20C21.103 17 22 17.897 22 19C22 20.103 21.103 21 20 21H7C6.448 21 6 21.447 6 22C6 22.553 6.448 23 7 23H20C22.206 23 24 21.206 24 19C24 16.794 22.206 15 20 15ZM19 10C19.553 10 20 9.552 20 9V5.25L23.565 3.365C24.146 2.966 24.146 2.036 23.565 1.636L20.752 0.377C20.196 0.128 19.601 0 19.001 0C18.448 0 18.001 0.448 18.001 1V9C18.001 9.552 18.447 10 19 10Z" fill="white"/>
</g>
<defs>
<clipPath id="clip0_839_3236">
<rect width="24" height="24" fill="white"/>
</clipPath>
</defs>
</svg>
