<svg width="24" height="24" viewBox="0 0 24 24" fill="none" xmlns="http://www.w3.org/2000/svg">
<g clip-path="url(#clip0_839_3234)">
<path d="M24 20.0001C24 21.6541 22.654 23.0001 21 23.0001C21 23.5531 20.553 24.0001 20 24.0001C19.447 24.0001 19 23.5531 19 23.0001H18.732C17.665 23.0001 16.669 22.4261 16.134 21.5011C15.857 21.0221 16.021 20.4111 16.498 20.1351C16.978 19.8561 17.589 20.0221 17.864 20.4991C18.043 20.8091 18.375 21.0001 18.731 21.0001H20.999C21.551 21.0001 21.999 20.5521 21.999 20.0001C21.999 19.6211 21.728 19.3021 21.354 19.2391L18.314 18.7331C16.972 18.5091 15.999 17.3591 15.999 16.0001C15.999 14.3461 17.345 13.0001 18.999 13.0001C18.999 12.4481 19.446 12.0001 19.999 12.0001C20.552 12.0001 20.999 12.4481 20.999 13.0001H21.267C22.334 13.0001 23.33 13.5741 23.865 14.4991C24.142 14.9781 23.978 15.5891 23.501 15.8651C23.02 16.1431 22.41 15.9771 22.135 15.5011C21.956 15.1911 21.624 15.0001 21.268 15.0001H19C18.448 15.0001 18 15.4481 18 16.0001C18 16.3791 18.271 16.6981 18.645 16.7611L21.685 17.2671C23.027 17.4911 24 18.6411 24 20.0001ZM14.983 22.6381C15.083 23.1811 14.723 23.7021 14.18 23.8021C13.464 23.9341 12.731 24.0001 11.999 24.0001C5.383 24.0001 2.2069e-06 18.6171 2.2069e-06 12.0001C-0.00399779 5.36111 5.43 -0.0328912 12.06 0.00310885C17.827 0.0321088 22.761 4.14911 23.802 9.82011C23.902 10.3631 23.542 10.8841 22.999 10.9841C22.451 11.0881 21.936 10.7241 21.835 10.1811C21.761 9.77611 21.654 9.38511 21.534 9.00011H16.75C16.75 9.00011 16.748 9.00011 16.747 9.00011C16.746 9.00011 16.745 9.00011 16.744 9.00011H7.972C7.68 9.95311 7.5 10.9611 7.5 12.0001C7.5 13.0391 7.679 14.0481 7.97 15.0001H13C13.553 15.0001 14 15.4471 14 16.0001C14 16.5531 13.553 17.0001 13 17.0001H8.773C9.985 19.4681 11.714 21.3191 12.384 21.9831C12.866 21.9651 13.348 21.9221 13.82 21.8351C14.362 21.7301 14.883 22.0951 14.984 22.6381H14.983ZM5.5 12.0001C5.5 10.9581 5.657 9.95611 5.903 9.00011H2.461C2.162 9.94811 2 10.9551 2 12.0001C2 13.0451 2.163 14.0521 2.461 15.0001H5.903C5.657 14.0441 5.5 13.0421 5.5 12.0001ZM8.778 7.00011H15.23C14.208 4.92011 12.816 3.27811 12.001 2.41411C11.189 3.27611 9.802 4.91711 8.778 7.00011ZM14.594 2.34111C15.537 3.51011 16.632 5.11311 17.425 7.00011H20.663C19.345 4.71711 17.163 3.02911 14.595 2.34111H14.594ZM3.353 7.00011H6.578C7.365 5.12511 8.448 3.52511 9.389 2.35811C6.819 3.05511 4.661 4.74711 3.353 7.00011ZM9.389 21.6421C8.449 20.4751 7.365 18.8751 6.578 17.0001H3.353C4.661 19.2531 6.819 20.9451 9.388 21.6421H9.389Z" fill="white"/>
</g>
<defs>
<clipPath id="clip0_839_3234">
<rect width="24" height="24" fill="white"/>
</clipPath>
</defs>
</svg>
