<svg width="24" height="24" viewBox="0 0 24 24" fill="none" xmlns="http://www.w3.org/2000/svg">
<g clip-path="url(#clip0_839_3222)">
<path d="M12 0C5.383 0 0 5.383 0 12C0 18.617 5.383 24 12 24C18.617 24 24 18.617 24 12C24 5.383 18.617 0 12 0ZM12 22C6.486 22 2 17.514 2 12C2 6.486 6.486 2 12 2C17.514 2 22 6.486 22 12C22 17.514 17.514 22 12 22ZM10 10C10 10.378 10.271 10.698 10.644 10.76L13.685 11.267C15.027 11.49 16 12.64 16 14C16 15.654 14.654 17 13 17V19H11V17C9.346 17 8 15.654 8 14H10C10 14.552 10.448 15 11 15H13C13.552 15 14 14.552 14 14C14 13.622 13.729 13.302 13.356 13.24L10.315 12.733C8.973 12.51 8 11.36 8 10C8 8.346 9.346 7 11 7V5H13V7C14.654 7 16 8.346 16 10H14C14 9.449 13.552 9 13 9H11C10.448 9 10 9.449 10 10Z" fill="white"/>
</g>
<defs>
<clipPath id="clip0_839_3222">
<rect width="24" height="24" fill="white"/>
</clipPath>
</defs>
</svg>
