<svg width="68" height="68" viewBox="0 0 68 68" fill="none" xmlns="http://www.w3.org/2000/svg">
<path d="M63.2125 25.2512C60.198 25.3199 58.2418 28.4828 59.519 31.2094C57.2224 33.1579 54.019 35.1626 52.3047 34.7347C52.1359 34.6928 51.2801 33.6329 51.2735 29.6116C51.2709 27.968 51.4123 26.3375 51.5444 25.1741C53.6214 24.7745 55.1552 22.8359 54.9122 20.5966C54.6675 18.3415 52.7045 16.7266 50.4417 16.8857C47.347 17.1033 45.5348 20.5735 47.1801 23.2479C45.6033 25.5981 43.1274 28.3174 41.3974 28.3893C41.1789 28.2663 39.78 27.2796 37.8996 21.4184C37.184 19.1866 36.4352 16.1444 36.4352 16.0911C37.5633 15.2845 38.2728 13.9309 38.1792 12.4216C38.0504 10.3451 36.3743 8.65518 34.2988 8.51045C31.8546 8.33994 29.8126 10.2789 29.8126 12.6875C29.8126 14.089 30.5035 15.3322 31.5648 16.0911C31.5648 16.135 30.9004 18.9241 30.1005 21.4184C28.22 27.2796 26.8211 28.2663 26.6026 28.3893C24.8726 28.3174 22.3954 25.5968 20.8199 23.2479C22.4645 20.5745 20.6541 17.1041 17.5595 16.8859C15.2966 16.7262 13.3328 18.3409 13.0879 20.5963C12.8448 22.8357 14.3786 24.7745 16.4557 25.1741C16.5879 26.3375 16.7292 27.968 16.7266 29.6116C16.7201 33.6329 15.8642 34.6928 15.6954 34.7347C13.9812 35.1639 10.7777 33.1579 8.48114 31.2094C9.75833 28.483 7.80106 25.3195 4.7871 25.2512C2.58382 25.2012 0.686481 26.9022 0.513354 29.0992C0.324654 31.4931 2.15996 33.5112 4.48861 33.6198C5.52017 35.5875 7.75238 40.1729 9.30778 45.7074C9.38734 45.9906 9.64395 46.1876 9.93813 46.1876H58.0619C58.3561 46.1876 58.6127 45.9906 58.6922 45.7074C60.2478 40.1717 62.4812 35.5875 63.5127 33.6198C65.8398 33.5099 67.6752 31.4935 67.4867 29.0996C67.3138 26.9022 65.4161 25.2009 63.2125 25.2512ZM34.0001 43.0469C32.1222 43.0469 30.8594 41.1534 30.8594 38.336C30.8594 35.5186 32.1222 33.625 34.0001 33.625C35.8779 33.625 37.1407 35.5186 37.1407 38.336C37.1407 41.1534 35.8779 43.0469 34.0001 43.0469Z" fill="#01B0C7"/>
<path d="M10.5097 51.1314C10.798 52.946 10.9683 54.8013 10.9687 56.6497C10.9689 57.8068 11.894 58.75 13.051 58.75H54.9489C56.106 58.75 57.031 57.8068 57.0313 56.6497C57.0317 54.8015 57.202 52.9461 57.4902 51.1314C57.5533 50.7342 57.2469 50.375 56.8448 50.375H11.1552C10.753 50.375 10.4465 50.7342 10.5097 51.1314Z" fill="#01B0C7"/>
<path d="M63.2125 25.2512C60.198 25.3199 58.2418 28.4828 59.519 31.2094C57.2224 33.1579 54.019 35.1626 52.3047 34.7347C52.1359 34.6928 51.2801 33.6329 51.2735 29.6116C51.2709 27.968 51.4123 26.3375 51.5444 25.1741C53.6214 24.7745 55.1552 22.8359 54.9122 20.5966C54.6675 18.3415 52.7045 16.7266 50.4417 16.8857C47.347 17.1033 45.5348 20.5735 47.1801 23.2479C45.6033 25.5981 43.1274 28.3174 41.3974 28.3893C41.1789 28.2663 39.78 27.2796 37.8996 21.4184C37.184 19.1866 36.4352 16.1444 36.4352 16.0911C37.5633 15.2845 38.2728 13.9309 38.1792 12.4216C38.0504 10.3451 36.3743 8.65518 34.2988 8.51045C31.8546 8.33994 29.8126 10.2789 29.8126 12.6875C29.8126 14.089 30.5035 15.3322 31.5648 16.0911C31.5648 16.135 30.9004 18.9241 30.1005 21.4184C28.22 27.2796 26.8211 28.2663 26.6026 28.3893C24.8726 28.3174 22.3954 25.5968 20.8199 23.2479C22.4645 20.5745 20.6541 17.1041 17.5595 16.8859C15.2966 16.7262 13.3328 18.3409 13.0879 20.5963C12.8448 22.8357 14.3786 24.7745 16.4557 25.1741C16.5879 26.3375 16.7292 27.968 16.7266 29.6116C16.7201 33.6329 15.8642 34.6928 15.6954 34.7347C13.9812 35.1639 10.7777 33.1579 8.48114 31.2094C9.75833 28.483 7.80106 25.3195 4.7871 25.2512C2.58382 25.2012 0.686481 26.9022 0.513354 29.0992C0.324654 31.4931 2.15996 33.5112 4.48861 33.6198C5.52017 35.5875 7.75238 40.1729 9.30778 45.7074C9.38734 45.9906 9.64395 46.1876 9.93813 46.1876H58.0619C58.3561 46.1876 58.6127 45.9906 58.6922 45.7074C60.2478 40.1717 62.4812 35.5875 63.5127 33.6198C65.8398 33.5099 67.6752 31.4935 67.4867 29.0996C67.3138 26.9022 65.4161 25.2009 63.2125 25.2512ZM34.0001 43.0469C32.1222 43.0469 30.8594 41.1534 30.8594 38.336C30.8594 35.5186 32.1222 33.625 34.0001 33.625C35.8779 33.625 37.1407 35.5186 37.1407 38.336C37.1407 41.1534 35.8779 43.0469 34.0001 43.0469Z" fill="#01B0C7"/>
<path d="M10.5097 51.1314C10.798 52.946 10.9683 54.8013 10.9687 56.6497C10.9689 57.8068 11.894 58.75 13.051 58.75H54.9489C56.106 58.75 57.031 57.8068 57.0313 56.6497C57.0317 54.8015 57.202 52.9461 57.4902 51.1314C57.5533 50.7342 57.2469 50.375 56.8448 50.375H11.1552C10.753 50.375 10.4465 50.7342 10.5097 51.1314Z" fill="#01B0C7"/>
</svg>
