<svg width="68" height="68" viewBox="0 0 68 68" fill="none" xmlns="http://www.w3.org/2000/svg">
<path fill-rule="evenodd" clip-rule="evenodd" d="M10.6875 14.6882V10.7812C10.6875 9.11462 11.3491 7.51709 12.5279 6.3404C13.7046 5.16162 15.3021 4.5 16.9688 4.5H50.4688C52.1354 4.5 53.7329 5.16162 54.9096 6.3404C56.0884 7.51709 56.75 9.11462 56.75 10.7812V14.6882L60.8307 26.9199C60.9019 27.1335 60.9375 27.3554 60.9375 27.5815C60.9375 31.4843 58.268 34.7631 54.6562 35.6927V56.894C54.6562 58.5606 53.9946 60.1582 52.8158 61.3349C51.6392 62.5136 50.0416 63.1753 48.375 63.1753H42.0938V48.5713C42.0938 46.352 41.2123 44.2226 39.642 42.6523C38.0716 41.082 35.9423 40.2005 33.7229 40.2005C33.7208 40.2005 33.7167 40.2005 33.7146 40.2005C29.0916 40.2005 25.3438 43.9483 25.3438 48.5713V63.1753H19.0625C17.3959 63.1753 15.7983 62.5136 14.6217 61.3349C13.4429 60.1582 12.7812 58.5606 12.7812 56.894V35.6927C9.16953 34.7631 6.5 31.4843 6.5 27.5815C6.5 27.3554 6.53558 27.1335 6.60677 26.9199L10.6875 14.6882ZM53.1446 17.1128H14.2929L10.7001 27.8851C10.855 30.0563 12.664 31.769 14.875 31.769C17.1886 31.769 19.0625 29.8951 19.0625 27.5815C19.0625 26.4258 20.0005 25.4878 21.1562 25.4878C22.312 25.4878 23.25 26.4258 23.25 27.5815C23.25 29.8951 25.1239 31.769 27.4375 31.769C29.6548 31.769 31.468 30.0479 31.6145 27.8683C31.6899 26.767 32.6049 25.9128 33.7083 25.9149C33.7083 25.9149 33.7229 25.9149 33.7166 25.9149H33.7313C34.8326 25.9149 35.7476 26.7691 35.823 27.8683C35.9695 30.0479 37.7827 31.769 40 31.769C42.3136 31.769 44.1875 29.8951 44.1875 27.5815C44.1875 26.4258 45.1255 25.4878 46.2812 25.4878C47.437 25.4878 48.375 26.4258 48.375 27.5815C48.375 29.8951 50.2489 31.769 52.5625 31.769C54.7735 31.769 56.5825 30.0563 56.7374 27.8851L53.1446 17.1128Z" fill="#01B0C7"/>
<path fill-rule="evenodd" clip-rule="evenodd" d="M10.6875 14.6882V10.7812C10.6875 9.11462 11.3491 7.51709 12.5279 6.3404C13.7046 5.16162 15.3021 4.5 16.9688 4.5H50.4688C52.1354 4.5 53.7329 5.16162 54.9096 6.3404C56.0884 7.51709 56.75 9.11462 56.75 10.7812V14.6882L60.8307 26.9199C60.9019 27.1335 60.9375 27.3554 60.9375 27.5815C60.9375 31.4843 58.268 34.7631 54.6562 35.6927V56.894C54.6562 58.5606 53.9946 60.1582 52.8158 61.3349C51.6392 62.5136 50.0416 63.1753 48.375 63.1753H42.0938V48.5713C42.0938 46.352 41.2123 44.2226 39.642 42.6523C38.0716 41.082 35.9423 40.2005 33.7229 40.2005C33.7208 40.2005 33.7167 40.2005 33.7146 40.2005C29.0916 40.2005 25.3438 43.9483 25.3438 48.5713V63.1753H19.0625C17.3959 63.1753 15.7983 62.5136 14.6217 61.3349C13.4429 60.1582 12.7812 58.5606 12.7812 56.894V35.6927C9.16953 34.7631 6.5 31.4843 6.5 27.5815C6.5 27.3554 6.53558 27.1335 6.60677 26.9199L10.6875 14.6882ZM53.1446 17.1128H14.2929L10.7001 27.8851C10.855 30.0563 12.664 31.769 14.875 31.769C17.1886 31.769 19.0625 29.8951 19.0625 27.5815C19.0625 26.4258 20.0005 25.4878 21.1562 25.4878C22.312 25.4878 23.25 26.4258 23.25 27.5815C23.25 29.8951 25.1239 31.769 27.4375 31.769C29.6548 31.769 31.468 30.0479 31.6145 27.8683C31.6899 26.767 32.6049 25.9128 33.7083 25.9149C33.7083 25.9149 33.7229 25.9149 33.7166 25.9149H33.7313C34.8326 25.9149 35.7476 26.7691 35.823 27.8683C35.9695 30.0479 37.7827 31.769 40 31.769C42.3136 31.769 44.1875 29.8951 44.1875 27.5815C44.1875 26.4258 45.1255 25.4878 46.2812 25.4878C47.437 25.4878 48.375 26.4258 48.375 27.5815C48.375 29.8951 50.2489 31.769 52.5625 31.769C54.7735 31.769 56.5825 30.0563 56.7374 27.8851L53.1446 17.1128Z" fill="#01B0C7"/>
</svg>
