<svg width="68" height="68" viewBox="0 0 68 68" fill="none" xmlns="http://www.w3.org/2000/svg">
<path d="M31.7188 48.5219H29.625V50.6232C29.625 51.4318 29.1629 52.1663 28.4391 52.5172C27.7132 52.866 26.8504 52.7676 26.2227 52.2647L15.7539 43.8594C15.2571 43.4595 14.9688 42.856 14.9688 42.2179C14.9688 41.5797 15.2571 40.9763 15.7539 40.5761L26.2227 32.1708C26.8525 31.666 27.7092 31.5695 28.4391 31.9183C29.1629 32.2694 29.625 33.0039 29.625 33.8125V35.9138H31.7188V29.6097C31.7188 28.4483 32.6553 27.5084 33.8125 27.5084H40.0938C41.1959 27.5084 42.0975 28.362 42.1814 29.4456L47.2112 25.4069L42.1814 21.3683C42.0977 22.4518 41.1959 23.3054 40.0938 23.3054H33.8125C32.6553 23.3054 31.7188 22.3655 31.7188 21.2041V4.5C16.533 5.58498 4.5 18.2999 4.5 33.8125C4.5 49.3251 16.533 62.04 31.7188 63.125V48.5219Z" fill="#01B0C7"/>
<path d="M35.9066 4.5V19.1031H38.0003V17.0016C38.0003 16.193 38.4624 15.4585 39.1862 15.1076C39.91 14.7567 40.7729 14.8551 41.4026 15.3601L51.8714 23.7654C52.3682 24.1655 52.6566 24.769 52.6566 25.4071C52.6566 26.0453 52.3682 26.6487 51.8714 27.0488L41.4026 35.4542C40.7749 35.9611 39.9161 36.0576 39.1862 35.7067C38.4624 35.3556 38.0003 34.6211 38.0003 33.8125V31.7112H35.9066V38.0153C35.9066 39.1767 34.97 40.1166 33.8128 40.1166H27.5316C26.4294 40.1166 25.5278 39.2629 25.4439 38.1794L20.4141 42.2181L25.4439 46.2567C25.5276 45.1732 26.4294 44.3196 27.5316 44.3196H33.8128C34.97 44.3196 35.9066 45.2594 35.9066 46.4209V63.125C51.0923 62.04 63.1253 49.3251 63.1253 33.8125C63.1253 18.2999 51.0923 5.58498 35.9066 4.5Z" fill="#01B0C7"/>
<path d="M31.7188 48.5219H29.625V50.6232C29.625 51.4318 29.1629 52.1663 28.4391 52.5172C27.7132 52.866 26.8504 52.7676 26.2227 52.2647L15.7539 43.8594C15.2571 43.4595 14.9688 42.856 14.9688 42.2179C14.9688 41.5797 15.2571 40.9763 15.7539 40.5761L26.2227 32.1708C26.8525 31.666 27.7092 31.5695 28.4391 31.9183C29.1629 32.2694 29.625 33.0039 29.625 33.8125V35.9138H31.7188V29.6097C31.7188 28.4483 32.6553 27.5084 33.8125 27.5084H40.0938C41.1959 27.5084 42.0975 28.362 42.1814 29.4456L47.2112 25.4069L42.1814 21.3683C42.0977 22.4518 41.1959 23.3054 40.0938 23.3054H33.8125C32.6553 23.3054 31.7188 22.3655 31.7188 21.2041V4.5C16.533 5.58498 4.5 18.2999 4.5 33.8125C4.5 49.3251 16.533 62.04 31.7188 63.125V48.5219Z" fill="#01B0C7"/>
<path d="M35.9066 4.5V19.1031H38.0003V17.0016C38.0003 16.193 38.4624 15.4585 39.1862 15.1076C39.91 14.7567 40.7729 14.8551 41.4026 15.3601L51.8714 23.7654C52.3682 24.1655 52.6566 24.769 52.6566 25.4071C52.6566 26.0453 52.3682 26.6487 51.8714 27.0488L41.4026 35.4542C40.7749 35.9611 39.9161 36.0576 39.1862 35.7067C38.4624 35.3556 38.0003 34.6211 38.0003 33.8125V31.7112H35.9066V38.0153C35.9066 39.1767 34.97 40.1166 33.8128 40.1166H27.5316C26.4294 40.1166 25.5278 39.2629 25.4439 38.1794L20.4141 42.2181L25.4439 46.2567C25.5276 45.1732 26.4294 44.3196 27.5316 44.3196H33.8128C34.97 44.3196 35.9066 45.2594 35.9066 46.4209V63.125C51.0923 62.04 63.1253 49.3251 63.1253 33.8125C63.1253 18.2999 51.0923 5.58498 35.9066 4.5Z" fill="#01B0C7"/>
</svg>
